<svg xmlns="http://www.w3.org/2000/svg" viewBox="0 0 170.15 168.21"><defs><style>.cls-1{fill:#3e38f2;}</style></defs><title>Asset 1</title><g id="Layer_2" data-name="Layer 2"><g id="Capa_1" data-name="Capa 1"><path class="cls-1" d="M138.93,164.53q-35,0-69.9,1.76c-5.83.23-11.65.67-17.48,1l-8.73.54-4.37.27c-.73,0-1.42.11-2.34.09a22.4,22.4,0,0,1-2.59-.06,29.16,29.16,0,0,1-10.17-2.57,29.79,29.79,0,0,1-8.76-6.14,30.41,30.41,0,0,1-6.15-9,31.69,31.69,0,0,1-2.59-10.83C5,127.91,4.07,116.26,3.3,104.61L2.22,87.14c-.36-5.83-.77-11.65-1-17.48S.64,58,.47,52.19l-.3-8.74C.13,42,.06,40.54,0,39.08L0,38v-.62l0-.83c.05-1.12.05-2.24.19-3.35a36.75,36.75,0,0,1,12-23.61A37.42,37.42,0,0,1,37.08,0Q72,0,107,1.77c5.83.23,11.65.68,17.48,1l8.73.54,4.37.27,1.09.07.66,0,.76.06a28,28,0,0,1,3,.37,32.54,32.54,0,0,1,20.2,12,32,32,0,0,1,6.79,21.53c-.84,11.65-1.76,23.3-2.53,34.95l-1.08,17.48c-.35,5.82-.77,11.65-1,17.47s-.58,11.65-.75,17.48l-.3,8.74-.14,4.37a41.38,41.38,0,0,1-.29,4.5,25.28,25.28,0,0,1-8.54,15.64A25,25,0,0,1,138.93,164.53Zm0-1.5a23.48,23.48,0,0,0,15.44-5.93A23.06,23.06,0,0,0,162,142.46c.28-2.76.13-5.74.16-8.63l0-8.74,0-17.48-.19-69.9a23.08,23.08,0,0,0-5.75-15.23,22.62,22.62,0,0,0-14.36-7.57c-2.69-.3-5.68-.15-8.58-.18l-8.73,0L107,14.8,37.08,15a22.83,22.83,0,0,0-15,5.68,22.47,22.47,0,0,0-7.49,14.21c-.28,2.66-.16,5.68-.2,8.57l0,8.74,0,17.47-.19,69.9a23.13,23.13,0,0,0,5.68,15.29,22.78,22.78,0,0,0,14.4,7.7c2.72.31,5.71.18,8.61.22l8.73,0,17.48,0Z"/><path class="cls-1" d="M20.29,19.73q5.73,2.81,11,6c3.58,2.12,7,4.37,10.45,6.64C48.6,37,55.13,41.82,61.51,46.83A415.85,415.85,0,0,1,97.56,79.1a422.26,422.26,0,0,1,32.17,36.14c5,6.39,9.84,12.93,14.41,19.75,2.26,3.42,4.5,6.88,6.62,10.45s4.15,7.23,6,11.05l-1.07,1.06L138.4,140.71l-17.15-17-34.31-34L53,55.33,36,38.14,19.22,20.79Z"/><path class="cls-1" d="M156.79,20.79q-2.81,5.73-6,11.05c-2.11,3.58-4.35,7-6.61,10.47-4.56,6.82-9.4,13.37-14.4,19.75a414.39,414.39,0,0,1-32.2,36.11,422.36,422.36,0,0,1-36.08,32.25c-6.37,5-12.91,9.86-19.72,14.44-3.42,2.27-6.87,4.51-10.44,6.64s-7.22,4.17-11,6.05l-1.07-1.06L36,139.14,53,122,86.94,87.58l34.31-34,17.15-17,17.32-16.83Z"/></g></g></svg>